<svg width="32" height="32" viewBox="0 0 32 32" fill="none" xmlns="http://www.w3.org/2000/svg">
  <!-- Simple background -->
  <rect width="32" height="32" rx="6" fill="#CC0DF8"/>
  
  <!-- Simplified "P" logo -->
  <path d="M6 24V8H12C14 8 15.5 8.5 16.5 9.5C17.5 10.5 18 11.5 18 13C18 14.5 17.5 15.5 16.5 16.5C15.5 17.5 14 18 12 18H9V15H11.5C12.2 15 12.7 14.8 13 14.4C13.3 14 13.5 13.5 13.5 13C13.5 12.5 13.3 12 13 11.6C12.7 11.2 12.2 11 11.5 11H9.5V24H6Z" fill="white"/>
  <circle cx="23" cy="13" r="3" fill="white"/>
</svg>
