<?xml version="1.0" encoding="UTF-8"?>
<!DOCTYPE svg PUBLIC "-//W3C//DTD SVG 1.1//EN" "http://www.w3.org/Graphics/SVG/1.1/DTD/svg11.dtd">
<!-- Creator: CorelDRAW -->
<svg xmlns="http://www.w3.org/2000/svg" xml:space="preserve" width="3.5in" height="1in" version="1.1" style="shape-rendering:geometricPrecision; text-rendering:geometricPrecision; image-rendering:optimizeQuality; fill-rule:evenodd; clip-rule:evenodd"
viewBox="0 0 3500 1000"
 xmlns:xlink="http://www.w3.org/1999/xlink"
 xmlns:xodm="http://www.corel.com/coreldraw/odm/2003">
 <defs>
  <style type="text/css">
   <![CDATA[
    .str0 {stroke:#373535;stroke-width:3;stroke-miterlimit:2.61313}
    .fil0 {fill:white}
    .fil1 {fill:#CC0DF8}
    .fil2 {fill:white;fill-rule:nonzero}
    .fil3 {fill:#201F1F;fill-rule:nonzero}
   ]]>
  </style>
 </defs>
 <g id="Layer_x0020_1">
  <metadata id="CorelCorpID_0Corel-Layer"/>
  <path class="fil0 str0" d="M237.86 172.7l1679.18 0 0 655.46 -1679.18 0c-61.6,0 -112,-50.4 -112,-112l0 -431.46c0,-61.6 50.4,-112 112,-112z"/>
  <path class="fil1" d="M1917.04 172.69l1338.06 0c60.43,0 109.87,49.44 109.87,109.87l0 435.74c0,60.43 -49.44,109.87 -109.87,109.87l-1338.06 0 0 -655.48z"/>
  <path class="fil2" d="M3011.76 650.07c-23.22,0 -44.31,-3.39 -63.28,-10.07 -18.96,-6.69 -34,-17.31 -45.09,-31.88 -11.02,-14.64 -16.61,-33.69 -16.61,-57.22l66.19 0c0.63,11.96 3.54,21.41 8.66,28.26 5.19,6.85 12.12,11.73 21.01,14.64 8.81,2.91 18.89,4.41 30.3,4.41 10.94,0 20.54,-1.34 28.8,-3.94 8.34,-2.6 14.8,-6.61 19.52,-12.04 4.64,-5.35 7,-12.28 7,-20.7 0,-8.19 -1.97,-14.95 -5.9,-20.31 -3.86,-5.35 -10.94,-10.23 -21.09,-14.64 -10.15,-4.41 -24.4,-9.13 -42.89,-14.17 -21.33,-6.14 -39.82,-12.91 -55.41,-20.31 -15.58,-7.4 -27.7,-16.92 -36.2,-28.57 -8.5,-11.73 -12.83,-26.92 -12.83,-45.65 0,-20.15 4.88,-36.6 14.64,-49.27 9.76,-12.67 23.3,-22.04 40.53,-28.02 17.16,-5.98 36.83,-8.97 59.03,-8.97 21.49,0 41.08,3.23 58.79,9.68 17.63,6.45 31.8,16.29 42.42,29.52 10.55,13.22 15.9,30.06 15.9,50.45l-66.43 0c0.16,-13.15 -4.8,-23.06 -14.72,-29.59 -10,-6.53 -22.04,-9.76 -35.97,-9.76 -13.69,0 -25.11,2.52 -34.31,7.71 -9.13,5.12 -13.69,13.07 -13.69,23.85 0,6.14 1.97,11.57 5.74,16.21 3.86,4.72 11.02,9.29 21.49,13.77 10.46,4.41 25.58,9.52 45.41,15.19 23.54,6.93 42.74,14.17 57.77,21.8 14.96,7.63 26.05,17.47 33.3,29.51 7.24,12.04 10.86,27.94 10.86,47.61 0,21.96 -5.43,39.75 -16.29,53.28 -10.78,13.54 -25.42,23.45 -43.92,29.75 -18.41,6.3 -39.35,9.44 -62.72,9.44z"/>
  <polygon class="fil2" points="2553.35,650.06 2553.35,339.74 2616.95,339.74 2759.72,548.85 2759.72,339.74 2820.56,339.74 2820.56,650.06 2756.96,650.06 2613.96,439.53 2613.96,650.06 "/>
  <path class="fil2" d="M2320.71 527.81l80.43 0 -40.14 -124.27 -40.3 124.27zm-104.99 121.99l111.6 -310.33 68.08 0 111.84 310.33 -68.08 0 -22.12 -68.24 -112.31 0 -22.35 68.24 -66.66 0z"/>
  <polygon class="fil2" points="1999.11,648.24 1999.11,337.91 2202.24,337.91 2202.24,391.59 2063.88,391.59 2063.88,464.23 2187.92,464.23 2187.92,515.63 2063.88,515.63 2063.88,648.24 "/>
  <polygon class="fil3" points="1585.29,648.24 1585.29,337.91 1793.7,337.91 1793.7,391.59 1650.06,391.59 1650.06,463.76 1780.08,463.76 1780.08,515.63 1650.06,515.63 1650.06,594.48 1793.7,594.48 1793.7,648.24 "/>
  <polygon class="fil3" points="1167.83,649.87 1167.83,339.54 1242.28,339.54 1339.8,505.05 1313.98,505.05 1409.92,339.54 1481.38,339.54 1481.38,649.87 1417.71,649.87 1417.71,374.09 1445.89,374.09 1344.44,550.7 1304.54,550.7 1200.8,374.09 1230.08,374.09 1230.08,649.87 "/>
  <polygon class="fil3" points="947.91,649.8 947.91,533.8 843,339.48 914.7,339.48 981.13,474.37 1047.71,339.48 1119.72,339.48 1014.34,533.8 1014.34,649.8 "/>
  <path class="fil3" d="M576.19 649.8l111.6 -310.33 68.08 0 111.84 310.33 -68.08 0 -22.12 -68.24 -112.31 0 -22.35 68.24 -66.66 0zm104.99 -121.99l80.43 0 -40.14 -124.27 -40.3 124.27z"/>
  <path class="fil3" d="M334.45 648.24l0 -310.33 121.91 0c20.3,0 38.88,3.62 55.72,10.78 16.84,7.24 30.22,18.26 40.22,32.98 9.99,14.8 15.03,33.61 15.03,56.51 0,22.59 -5.04,41.24 -15.03,56.04 -10,14.72 -23.38,25.74 -40.22,32.82 -16.84,7.17 -35.42,10.78 -55.72,10.78l-57.14 0 0 110.42 -64.78 0zm64.78 -162.52l51.16 0c14.95,0 27.15,-4.01 36.67,-12.04 9.52,-7.95 14.33,-19.83 14.33,-35.5 0,-16.29 -4.88,-28.33 -14.56,-36.2 -9.68,-7.87 -21.8,-11.72 -36.44,-11.72l-51.16 0 0 95.46z"/>
 </g>
</svg>
